<?xml version="1.0" encoding="utf-8"?><!-- Uploaded to: SVG Repo, www.svgrepo.com, Generator: SVG Repo Mixer Tools -->
<svg width="24px" height="24px" viewBox="0 0 24 24" fill="none" stroke="currentColor"  xmlns="http://www.w3.org/2000/svg">
	<path class="cls-1" d="M13,22.5,7.82,17.36a2,2,0,0,1-.59-1.43,2,2,0,0,1,2-2,2,2,0,0,1,1.43.59L12,15.82V6.38a2,2,0,0,1,1.74-2,1.87,1.87,0,0,1,1.51.56,1.83,1.83,0,0,1,.57,1.34V12l5,.72a1.91,1.91,0,0,1,1.64,1.89h0a17.18,17.18,0,0,1-1.82,7.71l-.09.18" stroke="rgb(200,200,200)"/>
	<polyline class="cls-1" points="5.32 10.09 1.5 10.09 1.5 6.27" stroke="rgb(200,200,200)"/>
	<polyline class="cls-1" points="6.27 1.5 10.09 1.5 10.09 5.32" stroke="rgb(200,200,200)"/>
	<line class="cls-1" x1="5.32" y1="6.27" x2="1.5" y2="10.09" stroke="rgb(200,200,200)"/>
	<line class="cls-1" x1="6.27" y1="5.32" x2="10.09" y2="1.5" stroke="rgb(200,200,200)"/>
</svg> 